# xmcd CD database file
#
# Track frame offsets:
#	150
#	17185
#	36772
#	53179
#	69536
#	87625
#	115671
#	130858
#	149998
#	175290
#	196046
#
# Disc length: 2879 seconds
#
# Revision: 0
# Processed by: cddbd v1.5.2PL0 Copyright (c) Steve Scherf et al.
# Submitted via: CDex 1.51
#
DISCID=a10b3d0b
DTITLE=Sam Vloemans - 2008 Bord du Nord
DYEAR=2008
DGENRE=Jazz
TTITLE0=Ouverture
TTITLE1=21
TTITLE2=Sleeping beauty
TTITLE3=Zomerriedel
TTITLE4=End of the night
TTITLE5=Late Night Groove
TTITLE6=La fuite
TTITLE7=Blue Tears
TTITLE8=Ghost's name
TTITLE9=When she wept
TTITLE10=Luchtwals
EXTD=YEAR: 2008
EXTT0=
EXTT1=
EXTT2=
EXTT3=
EXTT4=
EXTT5=
EXTT6=
EXTT7=
EXTT8=
EXTT9=
EXTT10=
PLAYORDER=
